Coordinates
version=1
nRows=29
nColumns=24
inDegrees=yes

Units are S.I. units (second, meters, Newtons, ...)
Angles are in degrees.

endheader
time	pelvis_tilt	pelvis_list	pelvis_rotation	pelvis_tx	pelvis_ty	pelvis_tz	hip_flexion_r	hip_adduction_r	hip_rotation_r	knee_angle_r	ankle_angle_r	subtalar_angle_r	mtp_angle_r	hip_flexion_l	hip_adduction_l	hip_rotation_l	knee_angle_l	ankle_angle_l	subtalar_angle_l	mtp_angle_l	lumbar_extension	lumbar_bending	lumbar_rotation
      1.16216667	     -0.21664220	     -4.28821409	     -1.74637886	     -0.17569991	      1.00419124	      0.33447241	    -15.95442093	      8.68920344	      3.40739688	     -6.18923111	     14.41678430	     -4.83057953	      3.53310207	     19.98819404	     -4.87352938	     -2.01049998	     10.10738040	      2.77002133	     -6.16089950	     -4.56285743	     -3.55992073	      2.16788501	      7.83784223
      1.16633333	     -0.21868723	     -4.14828475	     -1.86244079	     -0.16995434	      1.00336883	      0.33416824	    -16.15176987	      8.47200097	      3.42841571	     -6.49540319	     14.53580722	     -4.80203984	      3.53877957	     20.07592265	     -4.70810196	     -1.90447746	      9.66511096	      2.89914587	     -6.25249036	     -4.54631017	     -3.53155052	      1.98949248	      7.88018672
      1.17050000	     -0.22767992	     -3.98496437	     -1.95430331	     -0.16415348	      1.00255684	      0.33380402	    -16.31211819	      8.22980012	      3.32992237	     -6.86823558	     14.82550751	     -4.45861125	      3.56206927	     20.19552633	     -4.50683943	     -1.83356928	      9.11673468	      2.99476453	     -6.25030695	     -4.47465399	     -3.45329557	      1.77850745	      8.04776280
      1.17466667	     -0.21567144	     -3.80997759	     -2.05431151	     -0.15834980	      1.00180961	      0.33346329	    -16.49011673	      7.98230763	      3.33227042	     -7.24116738	     14.91646803	     -4.46761359	      3.57025196	     20.29242216	     -4.29796536	     -1.74849849	      8.51456323	      3.05177774	     -6.36120786	     -4.44086803	     -3.45330846	      1.57075524	      8.07811716
      1.17883333	     -0.22637177	     -3.60563751	     -2.13261155	     -0.15246046	      1.00105404	      0.33307653	    -16.62760636	      7.70458741	      3.24452696	     -7.65640718	     15.15839976	     -4.19067787	      3.60465341	     20.43111717	     -4.04909407	     -1.69750041	      7.83162769	      3.05073467	     -6.39505623	     -4.30644502	     -3.36352644	      1.30591504	      8.20750920
      1.18300000	     -0.21322098	     -3.39529358	     -2.20706924	     -0.14656419	      1.00036049	      0.33268232	    -16.77410498	      7.42567167	      3.18467182	     -8.09853285	     15.30582022	     -4.06670774	      3.64512959	     20.54807233	     -3.79285141	     -1.64112636	      7.10233680	      3.01493730	     -6.47795736	     -4.12352580	     -3.32936862	      1.05027436	      8.27928001
      1.18716667	     -0.17445869	     -3.19110489	     -2.27474329	     -0.14066480	      0.99973193	      0.33228643	    -16.94405572	      7.16235484	      3.18581668	     -8.54396033	     15.34428551	     -4.14223309	      3.65742710	     20.64508171	     -3.54103512	     -1.57751913	      6.32935700	      2.93659055	     -6.61225519	     -4.06965549	     -3.33367948	      0.80299999	      8.30560605
      1.19133333	     -0.18104192	     -2.96215483	     -2.34073207	     -0.13470013	      0.99906823	      0.33184743	    -17.02243943	      6.86492429	      3.06493145	     -9.08684293	     15.52789242	     -3.90205487	      3.75764466	     20.79425212	     -3.26077978	     -1.53106853	      5.52267146	      2.74675471	     -6.76653101	     -3.67549900	     -3.24747123	      0.52510759	      8.43662820
      1.19550000	     -0.13413365	     -2.71573365	     -2.38010005	     -0.12868545	      0.99850629	      0.33141726	    -17.19089530	      6.57146233	      3.07884968	     -9.55430268	     15.52156195	     -4.03434157	      3.77467618	     20.88690569	     -2.95608885	     -1.47145961	      4.69113912	      2.57226618	     -6.90465396	     -3.60658213	     -3.23532090	      0.21055638	      8.44151932
      1.19966667	     -0.09983521	     -2.46533924	     -2.41882175	     -0.12265657	      0.99796772	      0.33095876	    -17.32008197	      6.27447602	      3.07860893	    -10.07210430	     15.50129844	     -4.14524178	      3.79414144	     20.99670069	     -2.64540859	     -1.42471907	      3.83781041	      2.32426968	     -7.05732741	     -3.53870629	     -3.21625579	     -0.09119796	      8.46052256
      1.20383333	     -0.11662549	     -2.22324655	     -2.46274703	     -0.11660333	      0.99738409	      0.33047420	    -17.34353160	      5.97941967	      2.98876718	    -10.70243263	     15.58155066	     -4.01205374	      3.98973865	     21.13868333	     -2.34335236	     -1.25659112	      3.02597338	      1.83547797	     -7.53093402	     -2.94519291	     -3.08754917	     -0.39008374	      8.55879147
      1.20800000	     -0.05949398	     -1.94693902	     -2.47489327	     -0.11050575	      0.99694753	      0.32997191	    -17.46932378	      5.66787281	      2.97349422	    -11.27373318	     15.48989340	     -4.19865142	      4.01364243	     21.22693989	     -1.99715523	     -1.22383543	      2.14466334	      1.54812872	     -7.63982044	     -2.87246262	     -3.08634468	     -0.73409486	      8.55420549
      1.21216667	     -0.02228733	     -1.67611462	     -2.49876894	     -0.10438063	      0.99652475	      0.32947934	    -17.55524206	      5.36151198	      2.98593252	    -11.87872699	     15.33297853	     -4.37378793	      5.62554201	     21.31566496	     -1.66155748	     -1.14116758	      1.30838653	      0.97995472	     -8.00697446	      1.10526730	     -3.03045184	     -1.09899823	      8.53022000
      1.21633333	     -0.00370163	     -1.39467086	     -2.49662436	     -0.09824152	      0.99612434	      0.32893495	    -17.58942867	      5.05192682	      2.93329049	    -12.54884672	     15.19724681	     -4.50127134	      5.63774546	     21.43903526	     -1.30709545	     -1.08898584	      0.43290217	      0.54389946	     -8.15544512	      1.11217961	     -2.95792673	     -1.45108327	      8.54523235
      1.22050000	      0.02823757	     -1.11680743	     -2.49767166	     -0.09210435	      0.99578883	      0.32838270	    -17.60738406	      4.74580050	      2.86927071	    -13.27687553	     15.03506809	     -4.64786703	      5.66066721	     21.54183623	     -0.95747052	     -1.02975135	     -0.43762397	      0.09663226	     -8.36448053	      1.12648543	     -2.88109953	     -1.81303875	      8.54570570
      1.22466667	      0.02052390	     -0.83688346	     -2.49211679	     -0.08598031	      0.99543969	      0.32778307	    -17.54855551	      4.43844905	      2.79132088	    -14.07003785	     14.87344073	     -4.72873392	      5.77886026	     21.66564185	     -0.59795009	     -0.81859055	     -1.26278498	     -0.48982879	     -8.86030978	      1.20256946	     -2.79725219	     -2.12697358	      8.53295758
      1.22883333	      0.05581961	     -0.53984778	     -2.47695056	     -0.07982350	      0.99521068	      0.32718217	    -17.52101786	      4.11693627	      2.69590499	    -14.88501276	     14.63083812	     -4.87190405	      5.93618741	     21.74600983	     -0.22104209	     -0.70910856	     -2.10261670	     -0.99847617	     -9.15920221	      1.29056892	     -2.73865305	     -2.49999235	      8.49859991
      1.23300000	      0.09767399	     -0.22752969	     -2.44671046	     -0.07364728	      0.99504131	      0.32656546	    -17.48251798	      3.78461456	      2.58418300	    -15.72943907	     14.32831127	     -5.03224655	      6.00953077	     21.82622017	      0.17172247	     -0.64536756	     -2.96688906	     -1.39098566	     -9.28938992	      1.32470755	     -2.69328033	     -2.90713863	      8.48033857
      1.23716667	      0.16072827	      0.07540673	     -2.41164607	     -0.06749377	      0.99494413	      0.32591975	    -17.42829947	      3.45944201	      2.42700263	    -16.64303783	     13.99830345	     -5.19841486	      6.06767934	     21.88617652	      0.55646360	     -0.61007057	     -3.84088695	     -1.75430117	     -9.44171894	      1.34651268	     -2.65653788	     -3.27762705	      8.45401297
      1.24133333	      0.18018880	      0.39538677	     -2.37610334	     -0.06133126	      0.99484787	      0.32527272	    -17.29682576	      3.11690219	      2.27210265	    -17.60915092	     13.62419512	     -5.29642443	      6.19688868	     21.96987170	      0.95835541	     -0.49688612	     -4.67339900	     -2.16068216	     -9.64863925	      1.38742911	     -2.59486802	     -3.69383192	      8.39315342
      1.24550000	      0.21512700	      0.70805711	     -2.32908053	     -0.05518762	      0.99481984	      0.32458855	    -17.14496944	      2.77882652	      2.06350437	    -18.63849416	     13.21306829	     -5.39489130	      6.36261891	     22.03960931	      1.35651871	     -0.40172322	     -5.51856244	     -2.49079364	     -9.85010785	      1.43057276	     -2.54769370	     -4.07775579	      8.32747692
      1.24966667	      0.27820992	      1.02204614	     -2.27340194	     -0.04905224	      0.99487735	      0.32388115	    -16.99616545	      2.43561435	      1.82063835	    -19.70949486	     12.74490580	     -5.49097808	      6.52887163	     22.07631987	      1.75829127	     -0.33429686	     -6.36748333	     -2.74348994	    -10.00295813	      1.46468393	     -2.53310133	     -4.46449864	      8.26372966
      1.25383333	      0.35114050	      1.33512702	     -2.20940047	     -0.04294258	      0.99498489	      0.32313952	    -16.82290644	      2.08487483	      1.52747079	    -20.82461225	     12.14298755	     -5.61954044	     10.85603127	     22.09325015	      2.16517278	     -0.23976842	     -7.20186538	     -2.99403321	    -10.25775969	      2.10164904	     -2.53385641	     -4.83574952	      8.17493491
      1.25800000	      0.43530764	      1.65447404	     -2.14249292	     -0.03681457	      0.99516666	      0.32240652	    -16.63618730	      1.72586163	      1.22371880	    -21.98887568	     11.54538629	     -5.68455708	     10.86905394	     22.09205584	      2.57155100	     -0.21702863	     -8.03836487	     -3.10215177	    -10.28311834	      2.09609065	     -2.54889489	     -5.23548995	      8.11052773
      1.26216667	      0.49835236	      1.96123766	     -2.06327948	     -0.03073221	      0.99534657	      0.32163098	    -16.38208573	      1.37204586	      0.87094835	    -23.22860771	     10.95692232	     -5.68986185	     10.96846042	     22.11728469	      2.96824212	     -0.20189734	     -8.88784101	     -3.14941680	    -10.30192094	      2.07103161	     -2.54894050	     -5.60296858	      7.96217195
      1.26633333	      0.61494975	      2.27725483	     -1.98782223	     -0.02464283	      0.99565388	      0.32086642	    -16.16859214	      1.00132847	      0.51434076	    -24.47973984	     10.23044952	     -5.75932620	     11.02065134	     22.04984838	      3.37622913	     -0.16422013	     -9.67704260	     -3.14330969	    -10.33478401	      2.05622854	     -2.60894955	     -5.99684594	      7.90912896
      1.27050000	      0.71387139	      2.57798706	     -1.89969225	     -0.01859825	      0.99595260	      0.32004576	    -15.89133391	      0.63131454	      0.09649957	    -25.80443386	      9.51027856	     -5.72700756	     11.36960545	     22.00979312	      3.76930488	     -0.17954595	    -10.48957117	     -3.03422340	    -10.27450961	      1.95702158	     -2.66394324	     -6.34755424	      7.66396966
      1.27466667	      0.83632852	      2.88048625	     -1.80775755	     -0.01255694	      0.99634235	      0.31923194	    -15.62373855	      0.25770340	     -0.31371379	    -27.13457147	      8.64731236	     -5.81047059	     11.45453355	     21.89916947	      4.17235357	     -0.11340077	    -11.21422726	     -2.96219355	    -10.30157925	      1.92964103	     -2.73785196	     -6.73036720	      7.64824533
      1.27883333	      0.97160844	      3.16375289	     -1.71379987	     -0.00657429	      0.99676979	      0.31838370	    -15.33442922	     -0.11165470	     -0.75666661	    -28.51079680	      7.75023754	     -5.85099079	     11.50994977	     21.77311745	      4.55700790	     -0.08729769	    -11.94041617	     -2.82930366	    -10.34704886	      1.91040627	     -2.84001746	     -7.07198803	      7.59248753
